<?xml version="1.0" encoding="utf-8"?>
<!-- Generator: Adobe Illustrator 17.1.0, SVG Export Plug-In . SVG Version: 6.00 Build 0)  -->
<!DOCTYPE svg PUBLIC "-//W3C//DTD SVG 1.1//EN" "http://www.w3.org/Graphics/SVG/1.1/DTD/svg11.dtd">
<svg version="1.1" id="Layer_1" xmlns="http://www.w3.org/2000/svg" xmlns:xlink="http://www.w3.org/1999/xlink" x="0px" y="0px"
	 viewBox="0 0 512 512" enable-background="new 0 0 512 512" xml:space="preserve">
<path fill="#222228" d="M256,128c-70.7,0-128,57.3-128,128s57.3,128,128,128c70.7,0,128-57.3,128-128S326.7,128,256,128z
	 M330.3,275.2c-8.7,33.9-39.3,57.6-74.3,57.6s-65.5-23.7-74.3-57.6c-1-3.9,1.3-7.9,5.3-8.9c3.9-1,7.9,1.3,8.9,5.3
	c7.1,27.5,31.8,46.6,60.1,46.6c28.3,0,53-19.2,60.1-46.6c1-3.9,5-6.3,8.9-5.3C328.9,267.3,331.3,271.3,330.3,275.2z"/>
</svg>
