<svg xmlns="http://www.w3.org/2000/svg" xmlns:xlink="http://www.w3.org/1999/xlink" version="1.1" id="Layer_1" x="0px" y="0px" width="512px" height="500px" viewBox="0 0 512 500" xml:space="preserve" enable-background="new 0 0 512 500">
  <rect width="512" height="500" fill="#475A96"/>
  <path id="White_2_" d="M375.717 112.553H138.283c-8.137 0-14.73 6.594-14.73 14.73v237.434c0 8.135 6.594 14.73 14.73 14.73h127.826V276.092h-34.781v-40.28h34.781v-29.705c0-34.473 21.055-53.244 51.807-53.244 14.73 0 27.391 1.097 31.08 1.587v36.026l-21.328 0.01c-16.725 0-19.963 7.947-19.963 19.609v25.717h39.887l-5.193 40.28h-34.693v103.355h68.012c8.135 0 14.73-6.596 14.73-14.73V127.283C390.447 119.146 383.852 112.553 375.717 112.553z" fill="#FFF"/>
  <g/>
  <g/>
  <g/>
  <g/>
  <g/>
  <g/>
</svg>
