<?xml version="1.0" standalone="no"?>
<!DOCTYPE svg PUBLIC "-//W3C//DTD SVG 20010904//EN"
 "http://www.w3.org/TR/2001/REC-SVG-20010904/DTD/svg10.dtd">
<svg version="1.0" xmlns="http://www.w3.org/2000/svg"
 width="900.000000pt" height="675.000000pt" viewBox="0 0 900.000000 675.000000"
 preserveAspectRatio="xMidYMid meet">
<metadata>
Created by potrace 1.10, written by Peter Selinger 2001-2011
</metadata>
<g transform="translate(0.000000,675.000000) scale(0.100000,-0.100000)"
fill="#df4f3f" stroke="none">
<path d="M4185 6446 c-22 -8 -80 -16 -128 -19 -49 -3 -94 -10 -100 -16 -6 -6
-34 -11 -62 -11 -27 -1 -61 -7 -75 -15 -14 -8 -46 -14 -71 -15 -29 0 -51 -6
-59 -15 -7 -8 -27 -15 -44 -15 -17 -1 -42 -7 -56 -15 -14 -8 -37 -14 -51 -15
-14 0 -34 -7 -45 -15 -10 -8 -31 -15 -45 -15 -15 0 -32 -7 -39 -15 -7 -8 -22
-15 -34 -15 -12 0 -31 -7 -42 -15 -10 -8 -29 -15 -40 -15 -12 0 -27 -7 -34
-15 -7 -8 -19 -15 -27 -15 -13 0 -48 -15 -93 -41 -8 -5 -22 -12 -30 -15 -8 -3
-22 -10 -30 -15 -8 -5 -22 -12 -30 -15 -8 -3 -22 -10 -30 -15 -8 -5 -24 -14
-35 -19 -11 -6 -33 -19 -50 -30 -16 -11 -42 -25 -57 -31 -16 -6 -28 -14 -28
-19 0 -4 -8 -10 -17 -14 -23 -7 -44 -21 -115 -73 -31 -24 -61 -43 -67 -43 -6
0 -11 -4 -11 -8 0 -5 -28 -29 -62 -54 -153 -112 -423 -382 -536 -535 -25 -35
-49 -63 -54 -63 -4 0 -8 -5 -8 -11 0 -6 -13 -28 -30 -49 -16 -21 -30 -43 -30
-49 0 -6 -5 -11 -10 -11 -6 0 -15 -10 -20 -22 -6 -13 -19 -36 -30 -53 -11 -16
-24 -40 -30 -52 -5 -13 -14 -23 -20 -23 -5 0 -10 -8 -10 -19 0 -10 -7 -24 -15
-31 -8 -7 -15 -20 -15 -30 0 -10 -7 -23 -15 -30 -8 -7 -15 -18 -15 -25 0 -7
-7 -18 -15 -25 -8 -7 -15 -21 -15 -32 0 -11 -7 -26 -15 -34 -8 -9 -15 -24 -15
-33 0 -10 -7 -24 -15 -31 -8 -7 -15 -23 -15 -35 0 -13 -7 -25 -15 -29 -9 -3
-15 -18 -15 -34 0 -16 -7 -35 -15 -42 -8 -7 -15 -25 -15 -40 0 -15 -7 -33 -15
-40 -8 -7 -15 -25 -15 -40 0 -15 -7 -33 -15 -40 -8 -7 -15 -27 -15 -44 0 -17
-7 -40 -15 -50 -8 -11 -15 -34 -15 -52 0 -17 -7 -45 -15 -60 -8 -16 -15 -45
-15 -64 0 -19 -7 -44 -15 -54 -9 -12 -15 -42 -15 -72 0 -29 -5 -65 -12 -81 -7
-15 -15 -71 -19 -123 -4 -52 -12 -131 -17 -175 -6 -44 -11 -141 -11 -215 0
-74 5 -171 11 -215 5 -44 13 -123 17 -175 4 -52 12 -108 19 -123 7 -16 12 -52
12 -81 0 -30 6 -60 15 -72 8 -10 15 -34 15 -52 0 -18 7 -49 15 -69 8 -19 15
-48 15 -62 0 -15 7 -36 15 -47 8 -10 15 -33 15 -50 0 -16 7 -39 15 -50 8 -10
15 -28 15 -40 0 -11 7 -29 15 -40 8 -10 15 -28 15 -40 0 -11 7 -29 15 -40 8
-10 15 -29 15 -40 0 -12 7 -27 15 -34 8 -7 15 -20 15 -29 0 -10 7 -26 15 -37
8 -10 15 -26 15 -35 0 -9 7 -22 15 -29 8 -7 15 -21 15 -31 0 -9 6 -24 13 -31
6 -7 22 -34 35 -60 13 -26 27 -50 33 -53 5 -4 9 -15 9 -26 0 -11 7 -22 15 -25
8 -4 15 -12 15 -19 0 -8 6 -20 12 -27 16 -17 36 -48 45 -68 3 -8 18 -31 33
-50 15 -19 30 -43 33 -52 4 -10 11 -18 17 -18 5 0 10 -6 10 -13 0 -7 8 -20 18
-29 24 -24 37 -40 45 -60 3 -10 11 -18 17 -18 5 0 10 -5 10 -11 0 -5 13 -22
28 -37 15 -15 44 -47 64 -72 42 -53 188 -202 239 -245 20 -16 58 -48 84 -70
26 -22 55 -48 64 -58 8 -9 21 -17 27 -17 7 0 14 -3 16 -8 3 -8 82 -71 110 -87
9 -5 49 -33 90 -61 40 -27 80 -53 88 -57 8 -4 29 -16 45 -27 17 -10 53 -31 80
-45 28 -14 57 -30 65 -35 8 -5 22 -11 30 -14 8 -3 22 -10 30 -15 8 -5 33 -17
55 -26 22 -10 52 -24 67 -32 14 -7 33 -13 41 -13 8 0 20 -7 27 -15 7 -8 25
-15 40 -15 15 0 33 -7 40 -15 7 -8 24 -15 39 -15 14 0 35 -7 45 -15 11 -8 32
-15 47 -15 14 0 32 -7 39 -15 7 -8 29 -15 49 -15 20 -1 47 -7 61 -15 14 -8 39
-14 56 -15 17 0 48 -7 67 -15 20 -8 56 -15 79 -15 24 0 52 -7 62 -15 13 -10
44 -15 90 -15 39 -1 98 -7 131 -15 85 -21 575 -21 660 0 33 8 92 15 130 15 41
0 80 7 95 15 14 8 45 14 70 15 25 0 58 7 74 15 15 8 42 15 60 15 17 1 42 7 56
15 14 8 41 14 61 15 20 0 42 7 49 15 7 8 25 15 39 15 15 0 36 7 47 15 10 8 31
15 45 15 15 0 32 7 39 15 7 8 25 15 40 15 15 0 33 7 40 15 7 8 23 15 35 15 12
0 28 7 35 15 7 8 20 15 29 15 10 0 26 7 37 15 10 8 26 15 35 15 9 0 22 7 29
15 7 8 20 15 30 15 10 0 23 7 30 15 7 8 21 15 32 15 10 0 21 7 24 15 4 8 14
15 24 15 11 0 22 5 25 11 4 5 17 15 28 20 12 5 36 18 52 29 17 11 37 23 45 27
8 3 31 19 51 35 20 15 40 28 44 28 7 0 152 108 206 154 119 102 156 136 252
231 59 58 107 108 107 110 0 3 8 13 18 23 9 10 28 33 42 51 14 18 32 40 41 49
25 26 139 180 139 187 0 4 12 24 28 44 36 48 51 72 58 94 4 9 10 17 14 17 5 0
13 12 19 27 15 36 36 72 50 86 6 6 11 19 11 28 0 9 7 22 15 29 8 7 15 20 15
30 0 10 7 23 15 30 8 7 15 20 15 30 0 10 7 23 15 30 8 7 15 20 15 30 0 10 7
23 15 30 8 7 15 22 15 34 0 11 7 30 15 40 8 11 15 29 15 40 0 12 7 30 15 40 8
11 15 30 15 42 0 12 7 27 15 34 8 7 15 27 15 44 0 17 7 40 15 50 8 11 15 32
15 47 0 15 7 40 15 55 8 16 15 45 15 64 0 19 7 44 15 54 9 11 15 41 15 69 0
26 5 58 12 70 7 12 16 58 20 102 4 44 12 103 17 130 13 66 13 626 0 690 -6 28
-14 87 -18 133 -4 45 -13 88 -19 94 -7 7 -12 37 -12 68 0 34 -6 64 -15 76 -8
10 -15 35 -15 54 0 19 -7 46 -15 60 -8 14 -14 37 -15 51 0 14 -7 34 -15 45 -8
10 -15 33 -15 50 0 16 -7 39 -15 50 -8 10 -15 27 -15 37 0 11 -6 31 -13 45 -8
15 -21 42 -30 60 -9 19 -17 42 -17 52 0 9 -7 23 -15 30 -8 7 -15 23 -15 35 0
12 -7 28 -15 35 -8 7 -15 20 -15 30 0 10 -7 23 -15 30 -8 7 -15 20 -15 30 0
10 -6 23 -14 29 -8 7 -17 23 -20 36 -4 14 -11 25 -16 25 -6 0 -10 9 -10 19 0
11 -5 23 -11 26 -5 4 -15 17 -20 28 -5 12 -18 36 -29 52 -11 17 -24 40 -30 53
-5 12 -14 22 -20 22 -5 0 -10 5 -10 10 0 12 -41 73 -52 78 -5 2 -8 10 -8 17 0
8 -6 18 -13 22 -7 4 -23 25 -36 46 -12 20 -27 37 -32 37 -5 0 -9 7 -9 15 0 8
-4 15 -8 15 -4 0 -24 21 -44 48 -33 43 -77 92 -172 192 -60 64 -196 186 -266
240 -25 19 -49 40 -53 47 -4 7 -13 13 -18 13 -6 0 -37 20 -69 45 -32 25 -63
45 -69 45 -6 0 -11 5 -11 10 0 6 -10 15 -22 21 -49 22 -78 41 -78 50 0 5 -8 9
-18 9 -10 0 -23 5 -29 11 -12 12 -46 33 -80 48 -11 5 -24 15 -28 20 -3 6 -14
11 -24 11 -10 0 -24 7 -31 15 -7 8 -20 15 -30 15 -10 0 -23 7 -30 15 -7 8 -20
15 -30 15 -10 0 -23 7 -30 15 -7 8 -23 15 -35 15 -12 0 -28 7 -35 15 -7 8 -21
15 -30 15 -10 0 -33 8 -52 17 -18 9 -45 22 -60 30 -14 7 -37 13 -50 13 -12 0
-32 7 -42 15 -11 8 -31 15 -45 15 -14 0 -35 7 -45 15 -11 8 -36 15 -57 15 -20
0 -42 7 -49 15 -8 9 -29 15 -55 15 -24 0 -56 7 -71 15 -16 8 -52 15 -79 15
-28 0 -56 5 -62 11 -6 6 -48 13 -94 16 -46 3 -106 11 -133 19 -69 20 -563 19
-621 0z m-180 -1811 c22 -8 56 -14 76 -15 20 0 42 -7 49 -15 7 -8 27 -15 45
-15 18 0 38 -7 45 -15 7 -8 20 -15 30 -15 9 0 37 -11 61 -25 24 -14 51 -27 59
-31 8 -3 22 -10 30 -15 8 -5 22 -12 30 -16 16 -7 117 -79 163 -116 51 -41 42
-56 -150 -244 -98 -95 -186 -173 -196 -173 -15 0 -71 33 -87 51 -3 3 -12 8
-20 12 -8 4 -22 11 -30 15 -71 41 -173 70 -270 76 -134 9 -319 -19 -352 -52
-7 -7 -18 -12 -26 -12 -8 0 -34 -13 -59 -30 -24 -16 -48 -30 -52 -30 -13 0
-161 -150 -172 -174 -5 -11 -18 -34 -29 -51 -11 -16 -22 -37 -26 -45 -3 -8
-11 -28 -18 -45 -38 -89 -40 -104 -44 -268 -2 -138 0 -171 13 -189 8 -13 15
-32 15 -44 0 -12 7 -35 14 -51 8 -15 17 -35 20 -43 10 -28 102 -156 136 -190
65 -65 240 -170 285 -170 11 -1 31 -7 45 -15 36 -20 324 -20 360 0 14 8 35 14
47 15 12 0 34 7 50 14 15 8 35 18 43 21 8 3 29 14 45 25 17 11 39 24 51 29 60
27 215 215 239 290 l6 21 -333 0 c-192 0 -339 4 -348 10 -13 8 -15 50 -18 259
-2 166 1 257 8 271 11 20 18 20 636 20 l625 0 17 -37 c21 -48 31 -395 12 -446
-6 -18 -15 -54 -20 -82 -8 -54 -24 -103 -46 -148 -8 -16 -14 -37 -14 -47 0 -9
-7 -23 -15 -30 -8 -7 -15 -23 -15 -36 0 -12 -5 -26 -11 -29 -5 -4 -15 -17 -20
-28 -5 -12 -18 -35 -29 -52 -11 -16 -24 -40 -30 -52 -5 -13 -14 -23 -20 -23
-5 0 -10 -5 -10 -11 0 -6 -6 -17 -12 -25 -7 -7 -38 -42 -68 -77 -30 -34 -79
-83 -108 -107 -29 -25 -62 -53 -72 -62 -11 -10 -23 -18 -29 -18 -5 0 -11 -3
-13 -7 -4 -11 -65 -53 -76 -53 -5 0 -15 -7 -22 -15 -7 -8 -20 -15 -30 -15 -10
0 -23 -7 -30 -15 -7 -8 -20 -15 -30 -15 -10 0 -23 -7 -30 -15 -7 -8 -22 -15
-34 -15 -12 0 -31 -7 -42 -15 -10 -8 -30 -15 -44 -15 -14 0 -36 -7 -50 -15
-14 -8 -43 -15 -65 -15 -22 0 -58 -7 -80 -15 -56 -20 -334 -20 -390 0 -22 8
-53 15 -70 15 -32 0 -113 23 -158 46 -16 8 -37 14 -47 14 -9 0 -23 7 -30 15
-7 8 -19 15 -26 15 -16 0 -133 60 -152 77 -7 7 -20 13 -28 13 -8 0 -17 7 -20
15 -4 8 -12 15 -20 15 -8 0 -14 4 -14 9 0 5 -8 12 -17 15 -32 10 -223 205
-223 227 0 5 -7 12 -15 15 -8 4 -15 12 -15 20 0 8 -5 14 -10 14 -6 0 -15 10
-20 23 -6 12 -19 36 -30 52 -11 17 -24 40 -29 52 -5 11 -15 24 -20 28 -6 3
-11 17 -11 29 0 13 -7 29 -15 36 -8 7 -15 22 -15 34 0 12 -7 31 -15 42 -8 10
-15 28 -15 39 0 11 -7 33 -15 49 -8 15 -15 43 -15 61 0 18 -7 49 -15 68 -21
51 -21 400 0 437 8 14 15 45 15 70 0 25 7 54 15 64 8 11 15 32 15 47 0 14 7
32 15 39 8 7 15 23 15 37 0 13 7 31 15 39 8 9 15 24 15 33 0 10 7 24 15 31 8
7 15 21 15 31 0 11 4 19 9 19 5 0 19 19 31 42 31 59 104 153 175 223 63 63
148 135 158 135 3 0 21 14 39 30 18 17 40 30 49 30 9 0 19 7 23 15 3 8 14 15
24 15 11 0 25 7 32 15 7 8 20 15 30 15 10 0 23 7 30 15 7 8 23 15 35 15 12 0
28 7 35 15 7 8 27 15 44 15 18 0 41 7 52 15 10 8 35 15 54 15 19 1 49 7 65 15
44 20 415 20 470 0z m2055 -798 l5 -208 205 -2 205 -2 0 -175 0 -175 -207 -3
-208 -2 0 -208 c0 -148 -3 -211 -12 -220 -17 -17 -319 -17 -336 0 -9 9 -12 72
-12 220 l0 208 -201 0 c-119 0 -208 4 -220 10 -17 10 -19 23 -19 161 0 84 5
159 10 170 10 18 23 19 220 19 l210 0 0 203 c0 112 3 207 7 211 4 3 84 5 177
4 l171 -3 5 -208z"/>
</g>
</svg>
