<?xml version="1.0" encoding="utf-8"?>
<!-- Generator: Adobe Illustrator 17.1.0, SVG Export Plug-In . SVG Version: 6.00 Build 0)  -->
<!DOCTYPE svg PUBLIC "-//W3C//DTD SVG 1.1//EN" "http://www.w3.org/Graphics/SVG/1.1/DTD/svg11.dtd">
<svg version="1.1" id="Layer_1" xmlns="http://www.w3.org/2000/svg" xmlns:xlink="http://www.w3.org/1999/xlink" x="0px" y="0px"
	 viewBox="0 0 100 100" enable-background="new 0 0 100 100" xml:space="preserve">
<g>
	<g>
		<path fill="#FFFFFF" d="M38.4,35.7c-1.9,0-3.4,1.5-3.4,3.4c0,1.9,1.5,3.4,3.4,3.4s3.4-1.5,3.4-3.4C41.8,37.2,40.3,35.7,38.4,35.7z
			 M57.6,45.2c-3.4,0-5.4,2-6.2,3.3v0.1h0c0,0,0,0,0-0.1v-3.3h-6.9c0.1,1.7,0,19.1,0,19.1h6.9V54c0-0.6,0-1.1,0.2-1.5
			c0.5-1.1,2-2.2,3.7-2.2c2.3,0,2.8,1.7,2.8,4.2v9.8H65V53.8C65,48.1,61.8,45.2,57.6,45.2z M35,64.3h6.8V45.2H35V64.3z"/>
	</g>
</g>
</svg>
