<?xml version="1.0" encoding="utf-8"?>
<!-- Generator: Adobe Illustrator 17.1.0, SVG Export Plug-In . SVG Version: 6.00 Build 0)  -->
<!DOCTYPE svg PUBLIC "-//W3C//DTD SVG 1.1//EN" "http://www.w3.org/Graphics/SVG/1.1/DTD/svg11.dtd">
<svg version="1.1" id="Layer_1" xmlns="http://www.w3.org/2000/svg" xmlns:xlink="http://www.w3.org/1999/xlink" x="0px" y="0px"
	 viewBox="0 0 100 100" enable-background="new 0 0 100 100" xml:space="preserve">
<path fill="#FFFFFF" d="M51,29.3c-11.3,0-17,8.1-17,14.8c0,4.1,1.5,7.7,4.9,9.1c0.5,0.2,1,0,1.2-0.6c0.1-0.4,0.4-1.5,0.5-1.9
	c0.2-0.6,0.1-0.8-0.3-1.3c-1-1.1-1.6-2.6-1.6-4.7c0-6,4.5-11.4,11.7-11.4c6.4,0,9.9,3.9,9.9,9.1c0,6.8-3,12.6-7.5,12.6
	c-2.5,0-4.3-2.1-3.7-4.6c0.7-3,2.1-6.3,2.1-8.4c0-1.9-1-3.6-3.2-3.6c-2.5,0-4.6,2.6-4.6,6.1c0,2.2,0.8,3.8,0.8,3.8s-2.6,11-3.1,12.9
	c-0.9,3.8-0.1,8.5-0.1,9c0,0.3,0.4,0.3,0.6,0.1c0.2-0.3,3.3-4,4.3-7.8c0.3-1.1,1.7-6.5,1.7-6.5c0.8,1.6,3.2,3,5.8,3
	c7.6,0,12.8-7,12.8-16.3C66,35.9,60,29.3,51,29.3z"/>
</svg>
