<?xml version="1.0" encoding="utf-8"?>
<!-- Generator: Adobe Illustrator 17.1.0, SVG Export Plug-In . SVG Version: 6.00 Build 0)  -->
<!DOCTYPE svg PUBLIC "-//W3C//DTD SVG 1.1//EN" "http://www.w3.org/Graphics/SVG/1.1/DTD/svg11.dtd">
<svg version="1.1" id="Layer_1" xmlns="http://www.w3.org/2000/svg" xmlns:xlink="http://www.w3.org/1999/xlink" x="0px" y="0px"
	 viewBox="0 0 60 60" enable-background="new 0 0 60 60" xml:space="preserve">
<path fill="#FFFFFF" d="M40,23.8c-0.7,0.3-1.5,0.5-2.4,0.6c0.8-0.5,1.5-1.3,1.8-2.3c-0.8,0.5-1.7,0.8-2.6,1c-0.7-0.8-1.8-1.3-3-1.3
	c-2.6,0-4.6,2.5-4,5c-3.4-0.2-6.4-1.8-8.5-4.3c-1.1,1.8-0.6,4.3,1.3,5.5c-0.7,0-1.3-0.2-1.9-0.5c0,1.9,1.3,3.7,3.3,4.1
	c-0.6,0.2-1.2,0.2-1.9,0.1c0.5,1.6,2,2.8,3.8,2.8c-1.7,1.4-3.9,2-6.1,1.7c1.8,1.2,4,1.8,6.3,1.8c7.6,0,11.9-6.4,11.7-12.2
	C38.8,25.3,39.4,24.6,40,23.8z"/>
</svg>
