<svg xmlns="http://www.w3.org/2000/svg" version="1.0" width="900.000000pt" height="900.000000pt" viewBox="0 0 900.000000 900.000000" preserveAspectRatio="xMidYMid meet">
  <metadata>
    
Created by potrace 1.10, written by Peter Selinger 2001-2011

  </metadata>
  <g transform="translate(0.000000,900.000000) scale(0.100000,-0.100000)" fill="#087c01" stroke="none">
    <path d="M4100 8871c-173-10-360-37-545-78-176-39-415-109-555-163-30-12-66-25-80-30-65-21-215-90-472-215-127-61-166-90-135-100 6-2 125-6 262-8 282-5 317-11 590-87 79-23 319-100 366-118 13-6 42-17 64-25 301-117 330-130 671-298l221-109 59 26c96 42 145 64 219 99 230 109 293 138 415 189 74 31 143 61 152 66 10 6 22 10 27 10 5 0 22 5 38 12 43 17 184 68 218 78 17 5 62 19 100 30 139 42 274 76 365 90 36 6 81 15 100 21 20 6 150 13 294 15 142 2 261 5 264 8 2 3-6 10-19 16-13 6-37 19-54 30-72 47-419 212-505 240-14 5-50 18-80 30-68 26-335 115-410 136-101 29-114 32-205 53-49 12-110 26-135 32-25 6-81 15-125 20-44 6-111 14-150 20-94 12-785 19-955 10z"/>
    <path d="M7400 7645c-30-7-75-19-100-28-25-9-65-24-90-32-63-22-256-117-331-162-174-106-346-232-549-402-69-57-127-108-130-111-3-4-27-26-55-50-27-23-95-84-150-135-55-50-137-125-182-165-72-66-80-76-71-95 11-21 52-73 162-210 75-92 428-561 512-680 57-79 370-544 389-577 11-19 92-149 115-184 24-36 252-416 268-444 7-14 22-38 32-55 11-16 26-43 34-60 8-16 29-52 45-80 17-27 37-63 45-80 9-16 43-79 76-140 105-193 297-585 355-728 14-34 30-71 35-82 7-17 37-95 85-225 7-19 21-62 30-95 10-33 23-78 30-100 11-37 20-76 59-260 36-166 42-332 20-537-4-37-3-58 4-58 18 0 193 274 317 495 60 107 147 281 181 364 20 47 43 100 50 118 8 17 14 38 14 46 0 9 4 18 9 22 5 3 13 20 17 38 3 17 12 45 19 62 29 67 107 333 149 500 67 274 90 508 90 945 1 505-28 769-121 1125-31 120-113 377-125 389-4 6-8 18-8 27 0 9-9 38-21 65-11 27-25 60-31 74-5 14-17 41-25 60-8 19-21 49-28 65-25 60-185 381-215 430-16 28-34 59-40 70-11 23-19 35-77 123-24 35-43 65-43 68 0 4-43 64-77 109-5 6-25 33-45 62-21 29-46 62-57 75-10 13-52 64-93 113-94 113-258 276-317 315-48 33-73 35-161 15z"/>
    <path d="M1477 7640c-67-21-220-172-423-416-39-48-86-113-189-264-168-247-352-606-472-925-8-22-21-55-29-73-8-18-14-41-14-52 0-10-4-21-9-25-5-3-12-20-16-38-4-17-12-50-20-72-7-22-20-65-28-95-9-30-23-79-31-109-9-29-16-62-16-72 0-11-6-45-14-77-19-73-46-230-46-261 0-13-7-60-15-105-57-321-69-684-30-946 7-52 19-131 26-175 6-44 15-105 19-136 4-31 12-79 18-105 6-27 18-85 27-129 44-215 124-490 195-675 12-30 25-67 30-81 4-14 12-34 17-45 6-10 17-35 26-54 43-96 153-319 172-350 12-19 34-57 50-85 49-89 205-334 247-388 31-39 55-50 43-19-12 29-33 124-40 184-13 102 41 461 99 658 48 162 79 262 95 302 5 12 17 43 26 68 10 25 21 54 26 65 4 11 20 48 34 83 91 222 314 670 462 927 12 22 26 47 30 55 4 8 39 69 78 135 39 66 74 127 78 135 4 8 13 24 20 35 30 49 63 102 74 120 132 218 420 659 560 857 27 37 66 94 88 125 46 67 336 456 344 463 4 3 31 36 61 75 62 79 62 79 158 195 39 47 77 96 84 108 14 26 21 17-123 147-31 28-96 86-145 131-49 44-125 112-169 150-129 111-137 118-149 129-6 6-33 28-61 50-27 22-52 43-55 46-10 11-256 196-305 229-129 86-310 187-384 215-194 72-242 86-306 90-38 3-83 0-98-5z"/>
    <path d="M4470 5303c-307-201-922-771-1514-1403-162-173-490-560-626-740-19-25-37-47-41-50-3-3-23-30-44-60-21-30-41-57-44-60-8-7-117-161-166-235-22-33-44-64-48-70-15-20-77-117-77-122 0-2-11-19-24-36-13-18-36-54-51-82-14-27-36-66-47-85-34-56-134-260-158-320-12-30-26-64-31-75-12-29-40-107-45-130-3-11-11-42-19-70-49-177-45-379 8-477 34-63 75-117 126-166 64-62 250-205 359-275 164-107 208-134 222-140 8-4 29-16 45-27 46-29 69-42 215-116 144-74 230-113 370-168 25-10 54-23 65-29 11-5 33-14 50-18 26-6 74-23 210-70 81-29 384-103 500-123 55-10 122-22 150-27 239-47 960-45 1255 2 36 6 108 17 160 25 276 44 621 138 810 220 19 8 46 20 60 26 64 26 93 39 123 52 62 28 292 143 347 173 153 84 155 85 338 198 131 80 332 234 413 314 123 123 154 194 154 356 0 127-27 270-71 373-8 18-14 37-14 43 0 6-7 27-16 47-8 21-21 51-28 67-36 84-147 302-198 388-32 55-58 101-58 103 0 3-9 17-19 32-10 15-62 92-114 172-53 80-114 170-136 200-23 30-48 64-55 75-114 158-385 498-468 587-7 7-58 63-113 123-180 198-235 256-635 655-217 218-451 447-520 510-69 62-148 135-175 160-81 75-239 206-303 250-65 44-84 47-122 23z"/>
  </g>
</svg>
